<svg><symbol id="liwu" viewBox="-80 -72.013 160 144.025"><path d="M-71.949-16.039h55.974v-55.974h-55.974V-16.039z M16.102-16.039h55.975v-55.974H16.102V-16.039z M-80,32.013h64.025v-40H-80V32.013z M80,32.013v-40H16.102v40H80z M-7.923,32.013H8.051V-72.013H-7.923V32.013z M16.102,39.936 h-32.077v24.025h32.077V39.936z M64.025,39.936h-40l15.719,32.077h24.281V39.936z M-23.898,39.936h-40v32.077H-40L-23.898,39.936z" transform="matrix(1 0 0 -1 0 0)"></path></symbol><symbol id="qianbi" viewBox="-79.5 -79.5 159 159"><path d="M79.5,32.802l-93.538-93.538l-46.699,46.699L32.802,79.5L79.5,32.802z M-79.5-32.802L-32.802-79.5H-79.5 V-32.802z" transform="matrix(1 0 0 -1 0 0)"></path></symbol><symbol id="shangchuan" viewBox="-73.623 -78.055 147.245 156.11"><path d="M0.069,32.482L64.48-32.205H36.915v-45.85h-73.83l-0.139,45.85h-27.15L0.069,32.482z M73.623,78.055V59.632 H-73.623v18.423H73.623z" transform="matrix(1 0 0 -1 0 0)"></path></symbol>
<symbol id="more" viewBox="0 0 1024 1024"><path d="M121.682875 391.491369c-65.448618 0-118.509091 53.036937-118.509091 118.509091 0 65.448618 53.060473 118.485555 118.509091 118.485555s118.509091-53.036937 118.509091-118.485555C240.191966 444.529329 187.131493 391.491369 121.682875 391.491369zM499.656369 391.491369c-65.448618 0-118.509091 53.036937-118.509091 118.509091 0 65.448618 53.060473 118.485555 118.509091 118.485555s118.509091-53.036937 118.509091-118.485555C618.16546 444.529329 565.104987 391.491369 499.656369 391.491369zM901.254933 391.491369c-65.448618 0-118.510114 53.036937-118.510114 118.509091 0 65.448618 53.061496 118.485555 118.510114 118.485555s118.509091-53.036937 118.509091-118.485555C1019.763001 444.529329 966.703551 391.491369 901.254933 391.491369z" p-id="961"></path></symbol>
<symbol id="add" viewBox="0 0 1024 1024"><path d="M512 1008C238.064 1008 16 785.936 16 512S238.064 16 512 16s496 222.064 496 496S785.936 1008 512 1008zM512 78C272.304 78 78 272.304 78 512S272.304 946 512 946 946 751.696 946 512 751.696 78 512 78zM714.096 542.272 542.272 542.272l0 171.824c0 16.72-13.552 30.272-30.272 30.272s-30.272-13.552-30.272-30.272L481.728 542.272 309.904 542.272c-16.72 0-30.272-13.552-30.272-30.272 0-16.72 13.552-30.272 30.272-30.272l171.824 0L481.728 309.904c0-16.72 13.552-30.272 30.272-30.272s30.272 13.552 30.272 30.272l0 171.824 171.824 0c16.72 0 30.272 13.552 30.272 30.272C744.368 528.72 730.816 542.272 714.096 542.272z" /></symbol>
<symbol id="add-2" viewBox="0 0 1024 1024"><path d="M852.864 178.432c-187.904-187.52-492.096-187.328-679.744 0.448-187.584 187.84-187.392 492.032 0.384 679.808 187.84 187.52 492.224 187.264 679.744-0.576C1040.768 670.272 1040.768 366.016 852.864 178.432zM747.328 565.504l-197.12 0.32 0 197.632c0 20.352-16.448 37.056-36.864 37.184-20.48 0-36.992-16.704-36.992-37.056L476.352 565.888 278.848 566.144c-20.416 0-36.992-16.512-36.992-36.928 0-20.352 16.576-37.056 36.992-37.056l197.376-0.256L476.224 295.168c0-20.48 16.512-37.184 36.992-37.184S550.144 274.56 550.144 295.04l0 196.864 197.056-0.192c20.416 0 37.056 16.512 37.056 36.928C784.32 548.992 767.744 565.504 747.328 565.504z" /></symbol>
<symbol id="back" viewBox="0 0 1024 1024"><path d="M687.732364 172.450909 313.460364 511.488l374.295273 339.013818c13.079273 12.939636 13.079273 33.885091 0 46.801455-13.079273 12.939636-34.257455 12.939636-47.336727 0L242.106182 536.552727c-6.958545-6.888727-9.937455-16.034909-9.472-25.064727-0.465455-9.029818 2.513455-18.152727 9.472-25.064727L640.418909 125.649455c13.079273-12.916364 34.257455-12.916364 47.336727 0C700.811636 138.589091 700.811636 159.534545 687.732364 172.450909z" /></symbol>
<symbol id="cancel" viewBox="0 0 1024 1024"><path d="M958.291462 132.215254 889.566218 63.491033 511.581468 441.475783 133.596717 63.491033 64.872496 132.215254 442.857247 510.200004 64.872496 888.185778 133.596717 956.909999 511.581468 578.925249 889.566218 956.909999 958.291462 888.185778 580.305689 510.200004Z" /></symbol>
<symbol id="check" viewBox="0 0 1024 1024"><path d="M950.781553 127.488785 328.070978 750.117016 73.151353 495.169943 0 568.452435 328.070978 896.511215 1024 200.658437Z" /></symbol>
<symbol id="checkbox-off" viewBox="0 0 1024 1024"><path d="M895.250617 0 128.171545 0C57.458701 0 0.252804 57.133667 0.252804 127.774282l0 767.223531c0 70.712845 57.205897 127.846512 127.918742 127.846512l767.079072 0c70.712845 0 127.846512-57.133667 127.846512-127.846512L1023.097129 127.774282C1023.024899 57.133667 965.963462 0 895.250617 0zM946.461452 869.428511c0 42.326585-34.453552 76.707907-76.780137 76.707907L153.668618 946.136418c-42.326585 0-76.780137-34.381322-76.780137-76.707907L76.888481 153.343585c0-42.326585 34.453552-76.635678 76.780137-76.635678l716.012697 0c42.326585 0 76.780137 34.309092 76.780137 76.635678L946.461452 869.428511z" /></symbol>
<symbol id="checkbox-on" viewBox="0 0 1024 1024"><path d="M895.223147 4.552717 131.522936 4.552717c-70.458716 0-127.331546 56.87283-127.331546 127.187015l0 763.772477c0 70.458716 56.87283 127.331546 127.331546 127.331546l763.627946 0c70.38645 0 127.331546-56.87283 127.331546-127.331546L1022.482428 131.739732C1022.482428 61.425547 965.537332 4.552717 895.223147 4.552717zM946.242484 870.074806c0 42.130699-34.326041 76.384474-76.45674 76.384474L156.960339 946.45928c-42.130699 0-76.45674-34.253776-76.45674-76.384474L80.503599 157.177135c0-42.130699 34.326041-76.312209 76.45674-76.312209l712.825406 0c42.130699 0 76.45674 34.18151 76.45674 76.312209L946.242484 870.074806z"  /><path d="M439.445589 777.502893c-10.478476 0-20.595625-4.119125-28.255752-11.273394L194.466055 558.61115C178.278617 543.146366 177.700494 517.419901 193.309809 501.087932 208.84686 484.900494 234.573324 484.322371 250.833028 499.859421l185.21609 177.050106 335.600282-407.721101c14.308539-17.343684 39.962738-19.872971 57.234157-5.636697 17.488215 14.236274 19.872971 40.035004 5.636697 57.378687l-363.639238 441.685815c-7.15427 8.744107-17.632745 14.091743-28.90614 14.742131C441.035427 777.430628 440.240508 777.502893 439.445589 777.502893L439.445589 777.502893zM439.445589 777.502893"  /></symbol>
<symbol id="close" viewBox="0 0 1024 1024"><path d="M566.594 512.533l288.992-288.994c12.998-12.993 11.492-35.558-3.361-50.407-14.846-14.846-37.405-16.353-50.406-3.358l-288.991 288.994-288.99-288.994c-12.998-12.995-35.559-11.489-50.407 3.358-14.851 14.849-16.359 37.414-3.36 50.407l288.992 288.994-288.987 288.99c-12.995 12.99-11.496 35.56 3.355 50.407 14.842 14.846 37.416 16.349 50.407 3.36l288.99-288.992 288.993 288.992c12.988 12.989 35.564 11.486 50.406-3.36 14.852-14.847 16.35-37.416 3.355-50.408l-288.988-288.99z" /></symbol>
<symbol id="eye" viewBox="0 0 1024 1024"><path d="M509.349637 187.781804c115.281583 5.381567 217.380936 46.096874 305.823244 114.991987 65.828264 51.27378 124.480083 112.118544 183.757141 171.284061 29.160133 29.106922 27.483958 47.755654 1.63115 78.45791-100.186793 118.961392-215.300554 217.815841-367.285061 264.653589-129.642662 39.959084-251.051803 14.232143-366.221846-50.880831C169.095209 710.911282 87.611383 636.090203 16.213263 549.689391c-17.508769-21.190625-23.483854-42.559305-4.511757-65.556065C115.062596 358.863251 234.227626 254.925017 394.09773 208.703299 431.411567 197.915605 470.871277 194.562231 509.349637 187.781804zM339.830779 512.477884c-0.542352 92.928482 74.278727 169.220053 167.799704 171.109076 93.167936 1.87879 171.802878-75.831083 171.814134-169.794128 0.011256-92.801593-76.18924-169.263032-169.110559-169.69589C417.727916 343.66306 340.371084 420.055938 339.830779 512.477884z"  /><path d="M510.88255 441.561741c40.123836 0.691755 72.520687 34.269501 71.496357 74.108858-1.01819 39.948851-35.041074 71.818699-75.143421 70.403466-39.089273-1.381463-70.581522-33.919531-70.296019-72.6486C437.229063 473.53699 470.839555 440.872033 510.88255 441.561741z"  /></symbol>
<symbol id="i" viewBox="0 0 1024 1024"><path d="M512 960c-247.424 0-448-200.576-448-448s200.576-448 448-448c247.424 0 448 200.576 448 448 0 247.424-200.576 448-448 448zM512 128c-212.080 0-384 171.92-384 384s171.92 384 384 384c212.080 0 384-171.92 384-384 0-212.080-171.92-384-384-384zM512 768c-35.344 0-64-28.656-64-64v-192.001c0-35.344 28.656-64 64-64s64 28.656 64 64v192.001c0 35.344-28.656 64-64 64zM512 384c-35.344 0-64-28.656-64-64s28.656-64 64-64c35.344 0 64 28.656 64 64 0 35.344-28.656 64-64 64z" /></symbol>
<symbol id="lock" viewBox="0 0 1024 1024"><path d="M739.585345 414.725536c-17.649985 0-31.933293-14.270005-31.933293-31.901571L707.652052 261.070994c0-110.62554-77.961606-197.268876-192.782701-197.268876-116.006084 0-190.411701 88.508823-190.411701 197.268876l0 121.753995c0 17.630542-14.286378 31.901571-31.931247 31.901571-17.655102 0-31.936363-14.270005-31.936363-31.901571L260.59004 261.070994c0-143.961786 103.063307-261.070994 254.279311-261.070994 150.621463 0 256.647241 114.675786 256.647241 261.070994l0 121.753995C771.515568 400.455531 757.23533 414.725536 739.585345 414.725536z"  /><path d="M803.451932 1020.866636 228.658793 1020.866636c-70.448492 0-127.73215-57.229422-127.73215-127.610376L100.926644 510.434342c0-70.37993 57.283658-127.610376 127.73215-127.610376l574.794162 0c70.442352 0 127.72601 57.229422 127.72601 127.610376l0 382.821919C931.178965 963.637214 873.895307 1020.866636 803.451932 1020.866636zM228.658793 446.627107c-35.207873 0-63.86761 28.632107-63.86761 63.807235l0 382.821919c0 35.175127 28.659737 63.805188 63.86761 63.805188l574.794162 0c35.202757 0 63.86147-28.630061 63.86147-63.805188L867.314425 510.434342c0-35.175127-28.659737-63.807235-63.86147-63.807235L228.658793 446.627107z"  /><path d="M516.055362 574.23646c35.270295 0 63.86147 28.564569 63.86147 63.805188 0 35.237549-28.592198 63.805188-63.86147 63.805188-35.275411 0-63.86761-28.567639-63.86761-63.805188C452.187753 602.802052 480.779951 574.23646 516.055362 574.23646z"  /><path d="M516.055362 638.041648c17.633612 0 31.931247 14.281261 31.931247 31.901571l0 127.610376c0 17.61724-14.297634 31.903617-31.931247 31.903617-17.636682 0-31.936363-14.286378-31.936363-31.903617L484.118999 669.943218C484.118999 652.322909 498.41868 638.041648 516.055362 638.041648z"  /></symbol>
<symbol id="mic" viewBox="0 0 1024 1024"><path d="M512.04 63.692c-247.5 0-448.2 200.7-448.2 448.2s200.7 448.2 448.2 448.2S960.24 759.492 960.24 511.992 759.54 63.692 512.04 63.692zM512.04 912.992c-221.5 0-401-179.5-401-401s179.5-401 401-401 401 179.5 401 401C913.04 733.392 733.44 912.992 512.04 912.992zM519.84 629.892c69.5 0 125.8-56.3 125.8-125.8l0-157.3c0-69.5-56.3-125.8-125.8-125.8-69.5 0-125.8 56.3-125.8 125.8l0 157.3C394.04 573.592 450.34 629.892 519.84 629.892zM441.24 346.792c0-43.4 35.2-78.6 78.6-78.6 43.4 0 78.6 35.2 78.6 78.6l0 157.3c0 43.4-35.2 78.6-78.6 78.6s-78.6-35.2-78.6-78.6L441.24 346.792zM692.84 535.492c0 91.7-81.3 157.3-173 157.3-91.7 0-173-81.3-173-173l0-47.2-47.2 0 0 62.9c0 102.4 88.1 187.1 188.7 202.1l0 49.5c0 17.4 14.1 31.5 31.5 31.5 17.4 0 31.5-14.1 31.5-31.5l0-49.5c100.6-15 188.7-99.7 188.7-202.1l0-62.9-47.2 0L692.84 535.492z" /></symbol>
<symbol id="phone" viewBox="0 0 1024 1024"><path d="M728.22767 931.932118c-23.008017-5.15337-50.594305-9.613962-77.141938-17.548678-221.706451-66.269309-378.87605-211.146954-488.139569-410.084842-33.311687-60.651358-59.910485-126.851083-64.545038-197.721177-4.748141-72.617901 22.907733-135.031393 74.909084-184.468338 28.27702-26.883277 67.86362-30.334889 105.527428-30.021757 8.335852 0.069585 18.958794 12.07399 24.396643 21.079084 18.035772 29.861098 33.790594 61.08831 51.191916 91.347474 12.649088 21.994943 26.465768 43.320645 39.8588 64.884776 10.407024 16.757662 9.973142 33.177634-4.40738 46.737464-23.061228 21.744233-47.478338 42.042535-70.904886 63.409169-30.200836 27.545356-30.615275 35.010375-11.255345 70.123081 50.757011 92.058672 115.104551 171.920558 204.396203 229.459019 25.061792 16.149818 50.650587 31.614022 76.848249 45.824675 22.13616 12.007475 31.901571 10.304693 48.971341-7.972579 20.35049-21.789259 38.844703-45.302789 58.925041-67.357084 27.76639-30.497595 38.789445-30.572296 73.676-9.363252 43.897789 26.686802 88.828095 51.689243 133.536342 77.025281 31.840172 18.042935 33.840736 25.022906 29.632901 61.252039-10.19213 87.75874-74.207096 119.601982-146.176221 143.051043C770.263042 927.210583 751.439324 928.040485 728.22767 931.932118z" /></symbol>
<symbol id="reduce" viewBox="0 0 1024 1024"><path d="M512 955.1c-118.9 0-230.6-46.1-314.7-129.7C113.3 741.7 66.9 630.4 66.9 512c0-118.4 46.3-229.7 130.4-313.4C281.4 115 393.1 68.9 512 68.9S742.6 115 826.7 198.6c84.1 83.7 130.4 195 130.4 313.4 0 118.4-46.3 229.7-130.4 313.4C742.7 909 630.9 955.1 512 955.1L512 955.1 512 955.1zM512 132.4c-102 0-197.8 39.5-269.8 111.2-72 71.7-111.7 167-111.7 268.3 0 101.4 39.6 196.7 111.7 268.3C314.2 852 410 891.5 512 891.5c101.9 0 197.8-39.5 269.8-111.2 72-71.7 111.7-167 111.7-268.3 0-101.4-39.6-196.6-111.7-268.3C709.8 172 614 132.4 512 132.4L512 132.4 512 132.4zM543.8 543.8l190.8 0c17.6 0 31.8-14.2 31.8-31.8 0-17.6-14.2-31.8-31.8-31.8l0 0 0 0L543.8 480.2l-63.6 0L289.5 480.2c-17.5 0-31.8 14.2-31.8 31.8 0 17.5 14.2 31.8 31.8 31.8l190.8 0L543.8 543.8z" /></symbol>
<symbol id="reduce-2" viewBox="0 0 1024 1024"><path d="M512 0C229.2 0 0 229.2 0 512s229.2 512 512 512 512-229.2 512-512S794.8 0 512 0zM704.2 544 320 544c-17.6 0-31.8-14.4-31.8-32s14.4-32 31.8-32l384 0c17.6 0 32 14.4 32 32C736 529.6 721.6 544 704.2 544z" /></symbol>
<symbol id="report" viewBox="0 0 1024 1024"><path d="M899.45088 319.567872c-0.018432-0.02048 0-0.053248-0.018432-0.083968a20.40832 20.40832 0 0 0-2.033664-5.429248 32.4096 32.4096 0 0 0-0.643072-1.144832c-1.03424-1.71008-2.203648-3.319808-3.64544-4.691968v-0.01024L617.342976 46.139392s-0.034816-0.01024-0.034816-0.03072l-0.036864-0.026624c-0.01024-0.014336-0.045056-0.014336-0.065536-0.03072-1.409024-1.343488-3.06176-2.430976-4.80256-3.393536a18.055168 18.055168 0 0 0-1.304576-0.657408c-1.748992-0.82944-3.602432-1.513472-5.572608-1.906688-0.169984-0.01024-0.323584-0.01024-0.466944-0.016384a22.521856 22.521856 0 0 0-4.093952-0.39936H204.46208c-36.64896 0-66.476032 28.473344-66.476032 63.490048v812.306432c0 35.006464 29.827072 63.506432 66.476032 63.506432h628.973568c36.655104 0 66.465792-28.499968 66.465792-63.506432V323.846144c0-1.460224-0.172032-2.891776-0.45056-4.278272z m-265.4208-174.010368l151.216128 143.706112h-151.216128V145.557504z m196.972544 747.20256c0 10.684416-9.10336 19.400704-20.297728 19.400704H227.192832c-11.216896 0-20.31616-8.710144-20.31616-19.400704V125.908992c0-10.704896 9.10336-19.396608 20.31616-19.396608H577.92512v217.32352c0 12.179456 10.35264 22.050816 23.078912 22.050816h230.006784l-0.008192 546.873344z" /><path d="M698.836992 718.962688h-372.57216c-11.431936 0-20.69504 10.336256-20.69504 23.093248 0 12.76928 9.261056 23.0912 20.69504 23.0912h372.570112c11.421696 0 20.69504-10.326016 20.69504-23.0912-0.004096-12.75904-9.271296-23.093248-20.692992-23.093248zM698.836992 556.6464h-372.57216c-11.431936 0-20.69504 10.33216-20.69504 23.078912 0 12.767232 9.261056 23.089152 20.69504 23.089152h372.570112c11.421696 0 20.69504-10.305536 20.69504-23.089152-0.004096-12.746752-9.271296-23.078912-20.692992-23.078912zM482.01728 394.32192h-155.752448c-11.431936 0-20.69504 10.33216-20.69504 23.078912 0 12.767232 9.261056 23.089152 20.69504 23.089152h155.7504c11.421696 0 20.69504-10.305536 20.69504-23.089152-0.004096-12.7488-9.271296-23.078912-20.692992-23.078912z" /></symbol>
<symbol id="user" viewBox="0 0 1024 1024"><path d="M784.384 739.328q208.896 73.728 208.896 124.928l0 108.544-962.56 0 0-108.544q0-51.2 208.896-124.928 96.256-34.816 131.072-70.656t34.816-97.28q0-22.528-22.528-50.176t-32.768-74.752q-2.048-12.288-9.216-18.432t-14.336-8.192-14.336-17.408-9.216-44.032q0-16.384 5.12-26.624t9.216-12.288l4.096-4.096q-8.192-51.2-12.288-90.112-4.096-55.296 41.984-114.688t160.768-59.392 161.792 59.392 40.96 114.688l-12.288 90.112q18.432 8.192 18.432 43.008-2.048 28.672-9.216 44.032t-14.336 17.408-14.336 8.192-9.216 18.432q-8.192 49.152-31.744 75.776t-23.552 49.152q0 61.44 35.84 97.28t130.048 70.656z" /></path></symbol>
<symbol id="verification" viewBox="0 0 1024 1024"><path d="M916.670018 268.512477c-36.045961-2.506077-72.221882-9.261944-103.277178-19.200294-10.047844-3.006474-20.11513-6.362918-30.249955-9.981329-21.335934-6.275937-50.365084-18.741853-83.315544-36.503379-0.347924-0.151449-0.696872-0.370437-1.045819-0.544399-7.758708-4.184299-15.691377-8.653077-23.754007-13.381775-10.853186-6.232958-21.620413-12.879332-32.384571-19.787672-0.413416-0.304945-0.828878-0.544399-1.219781-0.828878-7.737218-4.968152-15.429411-10.111289-23.057135-15.473413-4.969175-3.399423-9.93835-7.016811-14.906501-10.635221-3.747347-2.745531-7.497765-5.317099-11.223622-8.150634-27.350928-20.420075-54.374398-43.347251-79.675644-68.038606-25.302269 24.691355-52.303226 47.618531-79.675644 68.038606-3.726881 2.833535-7.474228 5.405103-11.223622 8.150634-4.968152 3.618411-9.937326 7.235798-14.906501 10.635221-7.627724 5.361101-15.32094 10.504238-23.057135 15.473413-0.39295 0.283456-0.807389 0.523933-1.219781 0.828878-10.766205 6.90834-21.51092 13.555737-32.384571 19.787672-8.063653 4.728698-15.996322 9.196453-23.75503 13.381775-0.348947 0.172939-0.697895 0.391926-1.044796 0.544399-32.951483 17.761526-61.980633 30.227442-83.337033 36.503379-10.112312 3.618411-20.159132 6.974855-30.205952 9.981329-31.076786 9.93835-67.25373 16.694217-103.277178 19.200294l-0.086981 0c1.045819 16.148795 2.114151 37.549198 3.378957 60.737316 0.217964 0 0.434905 0 0.674359-0.044002 6.081509 86.518492 23.428595 209.5639 49.580209 281.873786 1.176802 3.137457 2.179642 6.450922 3.356444 9.567913 0.544399 1.460258 1.175779 2.833535 1.743714 4.29277 62.633502 161.617911 171.381275 279.235702 302.096363 322.342476l0 0.458441c17.304108 5.688559 31.861662 9.217942 43.346227 11.418051 11.486612-2.222621 26.042119-5.730515 43.346227-11.418051l0-0.458441c130.715087-43.106774 239.463883-160.724565 302.098409-322.342476 0.565888-1.481747 1.197268-2.833535 1.76418-4.29277 1.155313-3.116991 2.158153-6.429433 3.334955-9.567913 26.151613-72.309886 43.500746-195.35427 49.579185-281.873786 0.239454 0.044002 0.478907 0.044002 0.676405 0.044002 1.26276-23.188118 2.330068-44.589544 3.3984-60.737316L916.670018 268.512477 916.670018 268.512477zM869.400435 310.290999l-0.500397 9.478885c-0.522909 2.157129-0.87288 4.358261-1.02433 6.603395-5.644557 80.524988-21.553898 199.886493-47.181579 270.650163-0.697895 1.918699-1.350764 3.879354-2.003634 5.840008-0.437975 1.199315-0.829901 2.441609-1.438769 4.030803-0.545422 1.220804-1.046842 2.462075-1.394766 3.399423-58.232263 150.241816-158.349471 258.446213-274.725992 296.823266-1.873674 0.61296-3.704368 1.350764-5.447059 2.179642-7.889691 2.484587-15.626909 4.577249-23.144116 6.29845-7.432273-1.722224-15.125489-3.814886-23.014156-6.253424-1.765203-0.851391-3.618411-1.591241-5.536087-2.224668C367.61303 868.73989 267.494799 760.536516 209.37203 610.556667c-0.457418-1.199315-0.937348-2.353604-1.678222-4.14132-0.435928-1.175779-0.828878-2.396583-1.264806-3.594875-0.653893-1.961678-1.306762-3.922333-1.917676-5.558599-25.694195-71.002101-41.602513-190.385095-47.24707-270.888594-0.174985-2.245134-0.523933-4.446265-1.045819-6.624884l-0.479931-9.284457c-0.086981-1.481747-0.173962-2.964518-0.260943-4.423753 24.582885-3.792373 48.293913-9.284457 69.825298-16.171308 10.112312-3.028986 20.354584-6.42841 31.338752-10.329253 25.149796-7.562233 56.313563-21.161972 90.267886-39.423895 0.60989-0.304945 1.176802-0.60989 1.656733-0.89437 8.216125-4.424776 16.606213-9.153474 24.756847-13.926174 10.679223-6.123464 21.924335-12.988826 34.389228-21.008476 0.348947-0.239454 0.959861-0.60989 1.307785-0.849344 8.194636-5.29561 16.34527-10.744715 24.059975-16.171308 4.533246-3.115967 9.06547-6.385431 13.621229-9.67536l2.440585-1.765203 4.031826-2.899026c2.571568-1.853208 5.143137-3.683902 7.518231-5.492084 17.84953-13.316284 35.196617-27.371394 51.868321-41.995463 16.671705 14.601556 33.954323 28.635177 51.670823 41.86448 2.572592 1.940189 5.143137 3.770883 7.694239 5.601578l4.27128 3.072989 1.547239 1.110287c4.751211 3.465938 9.546424 6.930853 13.904685 9.915837 8.106632 5.688559 16.279778 11.136641 23.689538 15.930831l2.047636 1.330298c12.356422 7.954159 23.62507 14.84101 33.998325 20.769023 8.56405 5.033643 16.97665 9.762341 24.954345 14.077623 0.412392 0.216941 0.957815 0.522909 1.546216 0.807389 34.086329 18.371416 65.379033 32.034601 90.593298 39.619346 11.006681 3.900843 21.22644 7.300266 30.53341 10.06831 22.076808 7.060813 45.962821 12.618389 70.631664 16.432251C869.552907 307.456441 869.465926 308.85223 869.400435 310.290999L869.400435 310.290999zM710.287577 412.107919 476.470297 651.702786l-119.688963-122.673947c-8.303106-8.477069-21.727861-8.477069-30.009478 0-8.303106 8.522094-8.303106 22.272259 0 30.770817l134.681422 138.0174c4.161786 4.27128 9.589402 6.384407 15.015995 6.384407 5.425569 0 10.873652-2.113127 15.013949-6.384407L740.297055 442.87976c8.303106-8.499581 8.303106-22.273283 0-30.771841C731.993948 403.608338 718.571241 403.608338 710.287577 412.107919L710.287577 412.107919z" /></symbol>
		</svg>